<svg width="16" height="16" viewBox="0 0 16 16" fill="none" xmlns="http://www.w3.org/2000/svg">
<path fill-rule="evenodd" clip-rule="evenodd" d="M6.32285 4.79383H13.4677L9.22401 7.67406L6.33743 5.71489C6.44733 5.42354 6.44826 5.09421 6.32285 4.79383ZM4.45424 6.46553L5.49566 5.83773C5.80472 5.65143 5.90731 5.25393 5.72637 4.94367L4.78617 3.3314C4.68972 3.16598 4.54373 3.05956 4.35555 3.0175C4.16735 2.97542 3.98938 3.00939 3.83046 3.11772L2.11581 4.28651C1.29964 7.13366 4.96736 13.2976 7.78029 14L9.65999 13.1143C9.83419 13.0322 9.95291 12.8965 10.0102 12.7141C10.0675 12.5317 10.0474 12.3534 9.95093 12.188L9.01073 10.5757C8.82982 10.2654 8.43081 10.1546 8.11331 10.3265L7.04345 10.9055C5.98543 9.9739 4.74015 7.83848 4.45424 6.46553ZM13.9866 5.16424L9.39369 8.28152C9.28623 8.35414 9.14815 8.34847 9.04828 8.27741L5.99916 6.20795C5.94139 6.25949 5.87812 6.30647 5.8094 6.34791L5.15071 6.74496C5.49677 7.85068 6.35306 9.31905 7.14724 10.1686L7.82391 9.80238C8.4285 9.47517 9.18865 9.68626 9.53315 10.277L10.1162 11.2769H13.5124C13.7806 11.2769 14 11.0597 14 10.7942V5.27653C14 5.23791 13.9953 5.2003 13.9866 5.16424Z" fill="white"/>
</svg>
