<svg width="16" height="16" viewBox="0 0 16 16" fill="none" xmlns="http://www.w3.org/2000/svg">
<path d="M3.6 8.40002C3.17565 8.40002 2.76869 8.5686 2.46863 8.86865C2.16857 9.16871 2 9.57568 2 10V13.2C2 13.6244 2.16857 14.0313 2.46863 14.3314C2.76869 14.6315 3.17565 14.8 3.6 14.8C4.02435 14.8 4.43131 14.6315 4.73137 14.3314C5.03143 14.0313 5.2 13.6244 5.2 13.2V10C5.2 9.57568 5.03143 9.16871 4.73137 8.86865C4.43131 8.5686 4.02435 8.40002 3.6 8.40002Z" fill="white"/>
<path d="M8.00015 2C7.5758 2 7.16883 2.16857 6.86878 2.46863C6.56872 2.76869 6.40015 3.17565 6.40015 3.6V13.2C6.40015 13.6243 6.56872 14.0313 6.86878 14.3314C7.16883 14.6314 7.5758 14.8 8.00015 14.8C8.42449 14.8 8.83146 14.6314 9.13152 14.3314C9.43158 14.0313 9.60015 13.6243 9.60015 13.2V3.6C9.60015 3.17565 9.43158 2.76869 9.13152 2.46863C8.83146 2.16857 8.42449 2 8.00015 2Z" fill="white"/>
<path d="M12.4 5.19995C11.9757 5.19995 11.5687 5.36852 11.2687 5.66858C10.9686 5.96864 10.8 6.3756 10.8 6.79995V13.2C10.8 13.6243 10.9686 14.0313 11.2687 14.3313C11.5687 14.6314 11.9757 14.8 12.4 14.8C12.8244 14.8 13.2314 14.6314 13.5314 14.3313C13.8315 14.0313 14 13.6243 14 13.2V6.79995C14 6.3756 13.8315 5.96864 13.5314 5.66858C13.2314 5.36852 12.8244 5.19995 12.4 5.19995Z" fill="white"/>
</svg>
