<svg width="16" height="16" viewBox="0 0 16 16" fill="none" xmlns="http://www.w3.org/2000/svg">
<path fill-rule="evenodd" clip-rule="evenodd" d="M13.0874 5.34696L9.8558 2.67501C8.76722 1.775 7.23278 1.775 6.14422 2.67501L2.91258 5.34696C2.33035 5.82836 2 6.55823 2 7.31978V11.4865C2 12.8396 3.04049 14 4.4 14H5.6C6.26274 14 6.8 13.4628 6.8 12.8V10.8487C6.8 10.0882 7.37126 9.53522 8 9.53522C8.62874 9.53522 9.2 10.0882 9.2 10.8487V12.8C9.2 13.4628 9.73724 14 10.4 14H11.6C12.9595 14 14 12.8396 14 11.4865V7.31978C14 6.55824 13.6696 5.82836 13.0874 5.34696Z" fill="white"/>
</svg>
